<?xml version="1.0" standalone="no"?>
<!DOCTYPE svg PUBLIC "-//W3C//DTD SVG 20010904//EN"
 "http://www.w3.org/TR/2001/REC-SVG-20010904/DTD/svg10.dtd">
<svg version="1.0" xmlns="http://www.w3.org/2000/svg"
 width="1256.000000pt" height="1256.000000pt" viewBox="0 0 1256.000000 1256.000000"
 preserveAspectRatio="xMidYMid meet">
<metadata>
Created by potrace 1.14, written by Peter Selinger 2001-2017
</metadata>
<g transform="translate(0.000000,1256.000000) scale(0.100000,-0.100000)"
fill="#000000" stroke="none">
<path d="M925 10630 c-59 -14 -160 -63 -229 -110 -304 -205 -539 -609 -648
-1115 -31 -145 -32 -157 -32 -385 0 -231 0 -237 31 -359 93 -359 292 -613 581
-741 50 -22 122 -47 161 -56 l71 -16 0 -52 c0 -107 -59 -1252 -65 -1267 -4
-12 -32 -19 -108 -28 -140 -17 -212 -37 -278 -77 -139 -84 -219 -225 -219
-384 0 -58 62 -528 75 -570 3 -8 20 -123 40 -255 52 -363 70 -462 85 -480 20
-24 166 -90 239 -108 35 -9 65 -18 67 -19 1 -2 -8 -219 -21 -483 -28 -579 -25
-607 58 -652 28 -16 65 -18 287 -20 295 -3 338 4 374 66 30 51 31 138 6 644
-12 252 -20 464 -17 471 3 7 33 23 66 36 66 24 81 41 81 89 0 37 14 39 98 15
166 -47 394 -157 451 -218 20 -21 21 -27 10 -44 -11 -16 -150 -169 -196 -217
-81 -84 -343 -382 -343 -390 0 -28 437 -434 570 -529 15 -12 82 -62 148 -113
487 -373 1145 -731 1682 -914 80 -27 179 -63 220 -79 250 -96 850 -238 1210
-285 440 -57 482 -60 975 -60 449 1 480 2 705 28 298 35 413 52 438 66 10 6
62 15 113 21 52 6 123 20 159 31 59 18 106 29 336 74 80 16 129 30 394 116
227 74 449 158 625 236 85 38 423 203 465 227 14 8 63 36 110 62 149 83 389
232 505 314 79 55 208 150 260 190 32 25 70 54 85 65 155 115 564 487 592 538
8 15 1 28 -34 67 -95 107 -307 341 -397 438 -120 130 -123 136 -85 168 80 66
283 162 431 205 103 29 111 27 115 -23 3 -42 5 -44 68 -75 36 -18 68 -33 72
-35 4 -2 -4 -228 -18 -503 -25 -516 -24 -568 11 -622 9 -12 30 -31 48 -40 28
-16 63 -18 302 -18 294 0 315 3 354 55 36 49 42 109 32 295 -31 530 -43 796
-38 801 3 3 36 14 74 23 88 23 192 71 220 103 27 28 39 90 83 402 17 121 33
222 35 226 2 3 15 89 30 190 14 102 35 237 47 300 14 83 19 141 16 210 -4 85
-9 103 -41 167 -45 89 -83 133 -159 185 -83 55 -154 77 -286 87 -62 5 -115 10
-117 12 -2 2 -8 92 -14 199 -28 498 -51 930 -51 982 l0 56 163 4 c141 3 168 6
209 25 87 40 156 138 177 248 8 45 -11 886 -38 1685 -6 162 -13 403 -17 535
-6 268 -15 349 -41 377 -25 28 -55 19 -75 -22 -15 -30 -18 -75 -22 -265 -3
-127 -10 -347 -16 -490 -6 -143 -17 -464 -24 -714 -13 -423 -15 -455 -33 -480
-41 -54 -110 -47 -133 14 -5 14 -14 183 -20 377 -5 194 -12 373 -15 398 -2 25
-7 176 -10 335 -3 160 -8 315 -11 345 -3 30 -6 143 -8 251 -3 174 -5 201 -22
230 -25 43 -57 49 -80 14 -23 -36 -31 -135 -44 -590 -33 -1157 -39 -1332 -49
-1357 -21 -54 -98 -64 -132 -18 -24 32 -31 182 -59 1185 -18 641 -23 734 -38
765 -9 19 -25 37 -35 38 -24 5 -54 -23 -66 -62 -5 -17 -15 -211 -21 -431 -43
-1589 -36 -1482 -95 -1521 -21 -14 -30 -14 -55 -4 -59 24 -57 9 -85 1005 -14
501 -28 924 -31 942 -7 35 -37 73 -59 73 -23 0 -53 -40 -59 -79 -3 -20 -13
-288 -21 -596 -9 -308 -20 -684 -25 -835 -23 -636 -32 -980 -27 -1055 8 -138
77 -250 181 -297 45 -20 70 -23 214 -26 l162 -4 -5 -76 c-3 -43 -14 -270 -25
-507 -11 -236 -23 -480 -26 -542 l-7 -112 -66 -6 c-505 -47 -1019 -198 -1479
-436 -152 -79 -174 -92 -307 -178 -218 -141 -397 -311 -463 -441 -34 -67 -42
-92 -42 -137 0 -51 5 -63 58 -141 31 -47 68 -102 82 -122 14 -21 51 -77 82
-124 l58 -87 -34 -29 c-109 -96 -381 -281 -571 -390 -427 -243 -855 -407
-1340 -514 -376 -84 -628 -110 -1040 -111 -335 0 -420 6 -740 51 -684 97
-1407 382 -1975 778 -47 33 -98 69 -115 80 -16 12 -60 45 -97 74 l-68 54 17
31 c9 18 71 114 139 215 136 200 139 209 110 306 -68 225 -486 554 -990 779
-422 188 -815 292 -1292 342 l-60 7 -12 181 c-7 100 -21 371 -32 602 -11 231
-21 450 -23 487 l-4 67 76 16 c159 35 325 129 451 256 138 140 227 306 288
537 36 137 36 138 36 352 1 205 -1 223 -33 380 -112 552 -358 954 -720 1178
-68 42 -184 72 -274 71 -45 -1 -95 -4 -112 -9z m622 -4471 c224 -35 495 -109
768 -210 119 -43 288 -114 332 -138 10 -5 65 -33 123 -62 244 -120 462 -283
504 -377 25 -55 14 -76 -40 -80 -30 -2 -51 5 -94 33 -104 66 -158 88 -206 82
-52 -5 -59 -11 -178 -143 -257 -285 -429 -474 -432 -474 -2 0 -47 24 -101 52
-188 101 -470 217 -601 248 -28 6 -54 16 -57 20 -3 5 1 55 9 112 9 57 29 246
46 421 17 174 35 341 40 370 5 30 4 56 -1 61 -5 6 -28 -1 -59 -18 -46 -25
-278 -92 -287 -82 -2 2 -7 52 -10 111 l-6 107 64 -7 c35 -3 119 -15 186 -26z
m-772 -81 c-4 -57 -8 -104 -10 -106 -9 -9 -140 40 -170 63 -85 64 -5 136 159
144 l29 1 -8 -102z m11425 -529 c-18 -134 -42 -322 -54 -418 -25 -197 -21
-189 -125 -221 -185 -58 -435 -50 -583 16 -29 13 -39 24 -43 48 -8 50 -55 656
-55 714 0 58 1 59 70 38 82 -24 249 -39 370 -33 149 8 243 27 355 69 50 19 91
33 93 32 2 -1 -11 -111 -28 -245z m-11649 215 c41 -15 94 -30 119 -34 25 -5
86 -15 135 -24 152 -27 371 -15 516 28 l50 15 -7 -77 c-3 -42 -10 -113 -15
-157 -5 -44 -18 -188 -29 -320 -12 -131 -26 -245 -32 -252 -6 -7 -49 -25 -97
-40 -78 -25 -100 -28 -241 -28 -115 1 -172 5 -220 18 -81 22 -160 57 -160 71
0 20 -70 569 -85 671 -14 96 -19 155 -12 155 2 0 37 -12 78 -26z m2311 -952
c53 -71 395 -343 638 -509 199 -135 647 -376 850 -458 407 -162 734 -256 1140
-325 335 -57 445 -65 865 -65 365 0 514 9 705 40 47 8 144 24 215 35 72 12
153 28 180 35 28 7 93 23 145 35 377 87 829 263 1225 478 327 177 714 454 960
686 28 26 66 60 86 76 l36 30 234 -262 c129 -144 250 -280 269 -302 19 -21 46
-51 60 -66 50 -55 107 -117 182 -201 l77 -85 -47 -45 c-118 -112 -353 -308
-482 -402 -36 -26 -96 -69 -134 -97 -61 -45 -157 -109 -321 -215 -27 -18 -83
-51 -122 -74 -40 -22 -103 -59 -141 -80 -255 -148 -710 -349 -1040 -461 -267
-90 -641 -188 -882 -230 -69 -12 -127 -23 -131 -26 -8 -4 -271 -39 -474 -61
-205 -23 -958 -26 -1155 -5 -459 49 -702 90 -1030 172 -405 101 -681 197
-1110 386 -157 69 -536 271 -675 359 -273 174 -440 291 -645 454 -172 136
-360 306 -360 326 0 10 138 168 305 350 51 55 127 141 171 190 43 50 136 154
207 233 l129 142 29 -20 c16 -12 34 -29 41 -38z"/>
<path d="M12075 5674 c-27 -8 -93 -17 -145 -20 -52 -3 -101 -8 -109 -10 -10
-3 0 -20 35 -57 106 -110 144 -190 144 -299 -1 -137 -87 -236 -274 -314 -53
-22 -84 -40 -78 -46 5 -5 56 -12 113 -15 147 -8 311 25 323 66 19 60 81 684
71 701 -8 13 -18 12 -80 -6z"/>
<path d="M1215 5644 c-33 -7 -104 -16 -157 -20 -54 -4 -98 -9 -98 -12 0 -3 26
-31 58 -61 101 -99 141 -174 142 -269 1 -127 -95 -231 -268 -292 -42 -15 -78
-32 -79 -37 -9 -26 226 -31 325 -8 87 21 119 39 126 72 10 47 46 624 40 634
-6 11 -11 10 -89 -7z"/>
<path d="M9833 4708 c-177 -162 -385 -333 -508 -418 -51 -35 -234 -156 -280
-186 -185 -118 -529 -291 -763 -384 -293 -116 -679 -231 -927 -275 -49 -9
-115 -20 -145 -26 -491 -90 -1247 -89 -1745 2 -232 42 -274 51 -378 78 -207
55 -88 -6 144 -73 402 -116 715 -159 1169 -159 375 0 624 23 1040 98 80 14
188 37 240 50 52 13 127 31 165 40 300 66 954 297 1230 433 109 54 316 78 417
48 95 -27 148 -89 148 -170 0 -50 -43 -158 -92 -230 -154 -228 -371 -388 -798
-590 -70 -33 -252 -106 -265 -106 -3 0 -54 -18 -113 -39 -296 -109 -735 -222
-1067 -275 -393 -63 -527 -79 -838 -97 -259 -15 -888 -6 -1107 15 -253 25
-423 46 -450 57 -13 6 -77 19 -142 30 -65 10 -121 20 -125 21 -5 2 -9 -2 -10
-7 -1 -6 22 -16 50 -23 50 -13 70 -17 186 -41 29 -6 58 -8 64 -4 6 3 7 1 3 -5
-4 -7 -6 -12 -4 -12 2 0 57 -12 123 -26 170 -36 394 -71 570 -89 82 -8 159
-17 171 -20 12 -3 126 -9 255 -15 363 -16 793 7 1209 66 373 53 989 216 1365
361 337 130 803 360 1058 524 358 229 611 416 856 633 60 53 71 65 71 81 0 12
-248 296 -360 414 -14 14 -87 96 -162 181 -75 85 -147 166 -161 178 l-25 24
-69 -64z"/>
<path d="M2578 4534 c-112 -124 -243 -272 -292 -327 -49 -56 -113 -128 -143
-160 -29 -32 -53 -66 -53 -75 0 -18 8 -25 188 -178 102 -86 220 -179 311 -244
37 -26 35 -20 -14 50 -84 118 -143 262 -160 396 -8 58 15 165 51 234 51 99
177 189 311 221 63 15 246 15 311 -1 28 -6 56 -10 63 -8 6 2 -45 51 -113 110
-68 58 -147 129 -177 157 -29 28 -59 51 -67 51 -7 0 -104 -102 -216 -226z"/>
<path d="M8125 10378 c-165 -23 -308 -53 -460 -98 l-110 -33 -65 17 c-221 55
-271 61 -575 60 -279 0 -297 -1 -487 -32 -203 -34 -460 -100 -642 -166 -226
-82 -470 -223 -632 -365 l-82 -71 -103 0 c-330 0 -707 -62 -1039 -169 -507
-165 -985 -456 -1352 -823 -374 -375 -600 -788 -640 -1172 -41 -400 151 -730
534 -918 168 -82 321 -125 598 -169 131 -21 175 -23 465 -22 251 1 354 5 475
21 85 10 159 15 164 11 8 -7 19 -155 29 -399 17 -385 48 -974 57 -1059 13
-122 47 -218 95 -266 18 -17 63 -45 101 -61 l69 -29 304 2 c168 1 422 7 565
13 389 16 1497 39 2201 45 710 7 804 13 915 55 205 80 272 227 311 680 14 162
17 743 6 1036 l-8 210 27 13 c16 7 67 38 114 69 464 304 801 753 955 1273 46
155 62 235 80 389 101 860 -282 1597 -970 1867 -114 45 -170 60 -338 88 -183
31 -357 32 -562 3z m445 -334 c236 -34 462 -142 656 -311 208 -181 369 -480
426 -788 18 -95 17 -447 -1 -545 -16 -89 -80 -316 -107 -380 -78 -184 -208
-404 -330 -560 -116 -147 -335 -355 -504 -478 -47 -34 -97 -71 -112 -82 -14
-11 -55 -33 -90 -50 -116 -55 -203 -32 -215 57 -13 98 64 254 368 748 67 110
192 332 215 385 9 19 29 63 45 97 42 90 98 248 114 323 20 94 35 227 28 246
-3 10 -37 -47 -93 -158 -48 -95 -113 -218 -145 -273 -32 -55 -73 -125 -90
-155 -45 -78 -97 -164 -149 -245 -25 -38 -59 -92 -76 -120 -164 -266 -443
-647 -555 -760 -84 -84 -237 -189 -298 -206 -147 -39 -151 110 -12 451 24 58
62 148 85 200 159 361 240 592 240 686 l0 37 -26 -24 c-93 -87 -246 -341 -426
-709 -132 -271 -260 -433 -411 -523 -58 -34 -81 -42 -134 -45 -78 -5 -111 7
-162 63 -54 59 -78 109 -107 227 -41 164 -44 219 -54 748 -8 462 -18 648 -40
704 -7 20 -9 19 -20 -9 -22 -55 -70 -328 -85 -480 -13 -144 -28 -349 -40 -595
-10 -186 -32 -361 -54 -422 -22 -65 -83 -158 -132 -204 -85 -79 -161 -120
-275 -149 -87 -22 -160 -16 -256 21 -58 22 -85 40 -133 88 -33 34 -75 88 -92
121 -42 80 -89 242 -114 390 -68 407 -114 594 -140 568 -6 -6 -16 -196 -24
-434 -16 -486 -18 -516 -51 -624 -53 -182 -187 -225 -340 -108 -52 39 -100
108 -182 263 -160 299 -250 369 -522 405 -330 45 -719 -22 -962 -166 -81 -47
-87 -56 -51 -66 47 -13 438 -9 608 7 88 7 237 14 331 14 l170 1 59 -30 c82
-42 105 -78 105 -167 0 -80 -13 -111 -67 -158 -55 -49 -130 -79 -266 -108
-117 -25 -136 -26 -447 -26 -290 -1 -341 2 -475 22 -196 30 -270 47 -385 89
-248 90 -403 221 -461 390 -34 96 -34 292 -1 405 111 376 498 829 1017 1189
205 142 485 290 700 371 70 26 126 43 340 103 84 23 193 37 335 41 l135 3 -80
-71 c-44 -40 -199 -190 -345 -334 -146 -144 -287 -281 -315 -306 -95 -84 -302
-255 -366 -303 -164 -123 -209 -157 -209 -162 0 -11 70 8 156 43 237 95 536
263 734 412 25 18 58 43 74 55 16 12 48 38 71 57 23 19 75 62 115 95 94 77
237 200 321 279 36 33 81 75 100 91 19 17 72 64 119 105 268 238 532 419 756
519 273 122 578 180 879 167 83 -4 163 -9 178 -13 25 -5 26 -7 10 -18 -10 -6
-43 -25 -73 -40 -157 -83 -332 -189 -475 -290 -55 -38 -109 -77 -121 -85 -222
-154 -906 -771 -882 -796 12 -11 150 47 323 136 244 126 315 169 810 495 308
203 324 212 484 305 547 318 990 424 1471 354z m-209 -3481 c50 -22 79 -56
100 -118 19 -53 19 -814 0 -986 -24 -228 -64 -312 -166 -355 -52 -22 -272 -33
-660 -34 -317 -1 -857 -12 -1365 -29 -1355 -46 -1465 -46 -1538 -6 -112 61
-123 111 -158 665 -26 415 -26 559 -3 633 19 59 81 123 137 141 106 35 186 39
1407 66 1504 33 1861 42 1865 47 3 3 79 3 170 1 139 -4 172 -8 211 -25z"/>
<path d="M8035 9985 c-141 -31 -167 -38 -300 -87 -281 -104 -584 -276 -995
-563 -36 -25 -82 -57 -102 -72 -21 -14 -36 -29 -33 -33 3 -4 49 5 102 20 150
43 116 31 438 165 44 19 128 53 186 77 58 24 117 51 130 59 40 26 378 136 484
159 250 52 534 56 716 10 360 -92 639 -370 799 -796 39 -103 110 -360 110
-396 0 -9 5 -20 12 -24 14 -9 5 271 -13 381 -16 105 -74 294 -119 392 -141
305 -384 533 -690 646 -236 88 -500 110 -725 62z"/>
<path d="M6686 9899 c-95 -10 -156 -26 -261 -66 -307 -118 -558 -345 -833
-754 -76 -113 -142 -225 -142 -241 0 -20 -3 -23 380 338 138 130 482 423 556
474 12 8 60 42 106 74 45 33 127 85 181 117 54 31 95 59 90 61 -4 2 -39 1 -77
-3z"/>
<path d="M4452 9200 c-168 -44 -307 -136 -487 -321 -145 -150 -230 -262 -367
-489 -57 -93 -65 -119 -30 -87 10 10 22 17 26 17 8 0 146 103 196 146 167 144
256 227 498 467 155 154 282 282 282 283 0 9 -50 2 -118 -16z"/>
<path d="M8806 8480 c-72 -88 -169 -217 -222 -295 -381 -567 -448 -662 -543
-775 -85 -102 -155 -160 -193 -160 -29 0 -55 34 -62 83 -4 26 -11 49 -15 52
-11 6 -87 -161 -105 -232 -26 -104 -29 -183 -9 -223 23 -45 50 -49 107 -15 44
26 172 154 205 205 9 14 41 57 71 95 31 39 115 160 188 270 73 110 138 209
145 220 30 44 257 411 360 579 60 99 120 196 133 215 27 40 30 51 11 51 -7 0
-39 -31 -71 -70z"/>
<path d="M7804 8177 c-116 -86 -241 -236 -414 -497 -115 -173 -137 -204 -195
-268 -69 -76 -98 -92 -165 -92 -46 0 -56 4 -82 33 -45 47 -53 63 -86 162 -36
105 -54 201 -81 414 -28 214 -34 216 -52 21 -16 -177 -16 -501 0 -615 27 -183
99 -320 195 -372 72 -38 180 9 277 120 87 100 147 199 339 562 145 273 283
507 320 540 21 19 26 35 11 35 -5 0 -35 -19 -67 -43z"/>
<path d="M9465 8078 c-295 -448 -676 -868 -787 -868 -51 0 -62 89 -29 238 10
45 16 82 15 82 -2 0 -34 -46 -72 -102 -119 -178 -175 -293 -203 -416 -11 -52
8 -98 47 -108 36 -9 121 26 206 86 297 208 716 739 879 1114 22 49 39 91 39
93 0 18 -28 -17 -95 -119z"/>
<path d="M5166 7825 c-20 -74 -46 -189 -66 -290 -27 -137 -74 -313 -102 -383
-24 -62 -68 -112 -97 -112 -33 0 -84 53 -146 152 -87 138 -235 321 -249 307
-3 -2 59 -133 137 -290 157 -315 211 -396 280 -423 117 -44 151 -30 196 79 40
94 57 225 65 490 6 216 -5 518 -18 470z"/>
<path d="M6401 7750 c-58 -201 -142 -401 -214 -511 -65 -100 -96 -131 -161
-160 -119 -52 -230 7 -360 192 -51 74 -156 280 -206 406 -18 46 -35 81 -39 78
-10 -6 5 -127 30 -250 80 -394 184 -593 353 -671 63 -30 118 -30 198 -3 227
78 328 219 383 534 17 101 38 349 33 395 l-4 35 -13 -45z"/>
<path d="M3890 7173 c-8 -4 14 -14 54 -25 96 -26 175 -66 188 -94 36 -78 -158
-156 -472 -190 -85 -9 -161 -18 -169 -20 -77 -23 272 -51 431 -34 213 22 365
87 412 177 23 45 20 81 -9 119 -39 52 -96 66 -270 70 -82 2 -157 1 -165 -3z"/>
<path d="M7045 6509 c-519 -25 -781 -42 -790 -50 -5 -5 5 -9 25 -9 19 0 85 -7
145 -15 61 -8 223 -26 360 -40 138 -15 282 -30 320 -36 39 -5 223 -25 410 -44
512 -52 558 -63 595 -149 20 -45 30 -174 31 -396 2 -186 -19 -267 -82 -327
-45 -41 -81 -49 -289 -63 -96 -6 -263 -17 -370 -26 -107 -8 -377 -25 -600 -39
-223 -14 -477 -32 -565 -40 -88 -8 -194 -17 -235 -20 -189 -14 -551 -47 -610
-56 -36 -5 -101 -14 -145 -20 -44 -6 -84 -15 -88 -19 -21 -19 273 -25 1228
-25 1496 1 1781 18 1903 116 80 64 92 145 92 629 0 496 -12 571 -102 604 -24
8 -109 20 -189 26 -166 11 -801 11 -1044 -1z"/>
</g>
</svg>
